Coordinates
version=1
nRows=31
nColumns=38
inDegrees=no

Units are S.I. units (second, meters, Newtons, ...)
If the header above contains a line with 'inDegrees', this indicates whether rotational values are in degrees (yes) or radians (no).

endheader
time	pelvis_tilt	pelvis_list	pelvis_rotation	pelvis_tx	pelvis_ty	pelvis_tz	hip_flexion_r	hip_adduction_r	hip_rotation_r	knee_angle_r	ankle_angle_r	subtalar_angle_r	mtp_angle_r	hip_flexion_l	hip_adduction_l	hip_rotation_l	knee_angle_l	ankle_angle_l	subtalar_angle_l	mtp_angle_l	lumbar_extension	lumbar_bending	lumbar_rotation	arm_flex_r	arm_add_r	arm_rot_r	elbow_flex_r	pro_sup_r	wrist_flex_r	wrist_dev_r	arm_flex_l	arm_add_l	arm_rot_l	elbow_flex_l	pro_sup_l	wrist_flex_l	wrist_dev_l
40	3.01495	1.39788	-1.20324	0.557904	0.181068	0.871496	0.263286	-0.0322548	-0.136276	0.863025	0.336812	0	0	0.326112	-0.160572	-0.126385	0.990663	0.399828	0	0	-0.828904	0.196147	0.04493	0.503115	-0.303851	0.383284	0.306988	1.07468	0	0	0.219145	-0.32606	0.4548	0.801358	1.05593	0	0
40.01	3.01643	1.40177	-1.20606	0.557772	0.181251	0.873245	0.261317	-0.0335872	-0.136459	0.851805	0.331441	0	0	0.322554	-0.159123	-0.131632	0.977749	0.394911	0	0	-0.820848	0.192955	0.0429599	0.49879	-0.303175	0.382701	0.306981	1.07575	0	0	0.217684	-0.325529	0.454499	0.799989	1.05624	0	0
40.02	3.01846	1.40535	-1.2098	0.55769	0.181489	0.875129	0.25901	-0.0347994	-0.136252	0.840214	0.325524	0	0	0.318159	-0.157959	-0.137462	0.964261	0.389688	0	0	-0.812909	0.189485	0.0410029	0.494073	-0.302277	0.380248	0.3076	1.07799	0	0	0.216015	-0.325037	0.454053	0.798444	1.05686	0	0
40.03	3.02048	1.40852	-1.21364	0.557607	0.181764	0.877149	0.255602	-0.0356657	-0.136081	0.827366	0.319141	0	0	0.312917	-0.156992	-0.143619	0.950069	0.384078	0	0	-0.805183	0.186016	0.0391542	0.489167	-0.301494	0.378347	0.308352	1.08067	0	0	0.214244	-0.324469	0.453568	0.796729	1.05747	0	0
40.04	3.02125	1.41146	-1.21604	0.557464	0.182081	0.879286	0.251003	-0.036001	-0.136033	0.81275	0.312479	0	0	0.307154	-0.156096	-0.149606	0.935107	0.37819	0	0	-0.797474	0.182965	0.0371414	0.484246	-0.300785	0.37762	0.309028	1.08328	0	0	0.211991	-0.323874	0.452555	0.795241	1.05759	0	0
40.05	3.02289	1.41459	-1.21895	0.55729	0.182457	0.881472	0.246182	-0.0363481	-0.135695	0.797694	0.305741	0	0	0.301239	-0.154693	-0.155224	0.91953	0.372074	0	0	-0.789287	0.179974	0.0346916	0.479062	-0.299901	0.376967	0.30949	1.08545	0	0	0.20957	-0.323376	0.451897	0.793534	1.0573	0	0
40.06	3.024	1.41831	-1.2212	0.557147	0.18289	0.883635	0.242131	-0.0367506	-0.135311	0.782817	0.298597	0	0	0.295891	-0.153084	-0.160735	0.903777	0.365767	0	0	-0.780175	0.176841	0.0319675	0.473392	-0.298706	0.375317	0.310166	1.08743	0	0	0.206869	-0.323126	0.451499	0.79187	1.05679	0	0
40.07	3.02277	1.42217	-1.22119	0.557025	0.183376	0.885829	0.238054	-0.036691	-0.13496	0.767391	0.290902	0	0	0.290586	-0.151718	-0.166187	0.887603	0.359219	0	0	-0.770609	0.173865	0.0292341	0.46741	-0.297483	0.3733	0.311487	1.08973	0	0	0.203681	-0.323025	0.450778	0.790587	1.05659	0	0
40.08	3.01941	1.42608	-1.21904	0.556915	0.183916	0.888043	0.233696	-0.0362273	-0.134708	0.7512	0.283053	0	0	0.285233	-0.150509	-0.171482	0.870962	0.352383	0	0	-0.760637	0.171142	0.0263055	0.461209	-0.296135	0.371933	0.313248	1.09222	0	0	0.199962	-0.32314	0.449864	0.789652	1.05639	0	0
40.09	3.01559	1.43016	-1.21617	0.556788	0.184493	0.890266	0.22912	-0.035679	-0.13443	0.734566	0.275351	0	0	0.27993	-0.149112	-0.17657	0.853909	0.345194	0	0	-0.750238	0.168511	0.0232881	0.454823	-0.295023	0.373099	0.314918	1.094	0	0	0.196251	-0.323433	0.449399	0.788818	1.05607	0	0
40.1	3.01406	1.43476	-1.21517	0.556545	0.185114	0.892456	0.224724	-0.0359234	-0.134568	0.717806	0.267629	0	0	0.274827	-0.146664	-0.181099	0.83634	0.337798	0	0	-0.739142	0.165728	0.0198561	0.448167	-0.294364	0.37594	0.316605	1.0954	0	0	0.192461	-0.323592	0.449124	0.7878	1.05605	0	0
40.11	3.01162	1.43981	-1.21326	0.556331	0.185784	0.894606	0.220702	-0.0361154	-0.134399	0.700858	0.259418	0	0	0.270013	-0.144133	-0.185726	0.818491	0.330381	0	0	-0.727413	0.162791	0.0164949	0.441148	-0.293591	0.378618	0.318349	1.09758	0	0	0.188721	-0.323986	0.449652	0.786604	1.05621	0	0
40.12	3.01397	1.44625	-1.21675	0.5564	0.186586	0.896488	0.212804	-0.0350803	-0.118314	0.662592	0.238922	0	0	0.266191	-0.141119	-0.191659	0.800798	0.32296	0	0	-0.713934	0.157993	0.012688	0.4332	-0.291965	0.381093	0.320553	1.10065	0	0	0.184172	-0.325582	0.450055	0.786497	1.05668	0	0
40.13	3.00216	1.44984	-1.20514	0.556075	0.187247	0.898927	0.212314	-0.0352346	-0.133299	0.665801	0.2429	0	0	0.260009	-0.139829	-0.195639	0.782079	0.315173	0	0	-0.703525	0.156892	0.00981384	0.4268	-0.291283	0.382924	0.322048	1.10251	0	0	0.180533	-0.325178	0.449495	0.785033	1.05687	0	0
40.14	2.99687	1.45475	-1.20054	0.555967	0.18806	0.90108	0.207526	-0.0347177	-0.132897	0.647552	0.234098	0	0	0.2546	-0.137635	-0.200575	0.763417	0.307341	0	0	-0.691443	0.153869	0.00665508	0.419442	-0.29051	0.387799	0.323964	1.10507	0	0	0.176472	-0.325914	0.449878	0.784298	1.05715	0	0
40.15	2.99214	1.45992	-1.19674	0.555877	0.188932	0.903149	0.203101	-0.034468	-0.132524	0.629661	0.225518	0	0	0.249264	-0.135325	-0.20601	0.744657	0.299477	0	0	-0.678851	0.150466	0.00365112	0.411887	-0.289758	0.392953	0.325625	1.10784	0	0	0.172373	-0.326792	0.45077	0.783525	1.05794	0	0
40.16	2.98696	1.46532	-1.19258	0.555785	0.189844	0.905144	0.199045	-0.0344856	-0.13252	0.612067	0.21725	0	0	0.24418	-0.132934	-0.211679	0.726004	0.291623	0	0	-0.665784	0.146927	0.000707156	0.40416	-0.288987	0.397977	0.327145	1.11102	0	0	0.168197	-0.327729	0.451921	0.782767	1.05913	0	0
40.17	2.9797	1.47067	-1.18636	0.555717	0.190803	0.907107	0.194751	-0.034348	-0.132791	0.59399	0.20898	0	0	0.239097	-0.130663	-0.217211	0.707338	0.283674	0	0	-0.65259	0.143493	-0.00209018	0.396382	-0.288261	0.402968	0.328672	1.11419	0	0	0.163966	-0.328522	0.452688	0.781826	1.06074	0	0
40.18	2.97152	1.47586	-1.17921	0.555638	0.191832	0.909035	0.19	-0.0341289	-0.133197	0.575515	0.200627	0	0	0.233781	-0.128423	-0.222645	0.688622	0.275768	0	0	-0.639305	0.140132	-0.00472337	0.388329	-0.287798	0.408831	0.330531	1.11818	0	0	0.159784	-0.329278	0.453869	0.780698	1.06286	0	0
40.19	2.96036	1.48092	-1.16898	0.555528	0.1929	0.910896	0.185052	-0.0340222	-0.134337	0.557157	0.192053	0	0	0.228379	-0.126448	-0.228204	0.669857	0.267913	0	0	-0.62591	0.13702	-0.00719558	0.38008	-0.287477	0.414886	0.3326	1.12317	0	0	0.155494	-0.329807	0.454578	0.779588	1.06551	0	0
40.2	2.9418	1.48644	-1.15092	0.555375	0.193933	0.912599	0.181059	-0.0339579	-0.136606	0.539378	0.184125	0	0	0.224208	-0.124732	-0.233181	0.651858	0.260257	0	0	-0.611714	0.134402	-0.00974621	0.371598	-0.287339	0.421128	0.335126	1.12967	0	0	0.151385	-0.330143	0.455265	0.778076	1.06945	0	0
40.21	2.93224	1.53152	-1.12803	0.551091	0.193053	0.9091	0.229048	-0.067971	-0.160727	0.551954	0.193945	0	0	0.269762	-0.0894888	-0.20716	0.645112	0.252637	0	0	-0.554606	0.127556	-0.0342126	0.358421	-0.291453	0.425708	0.339282	1.13622	0	0	0.142515	-0.324296	0.453913	0.772211	1.07228	0	0
40.22	2.91085	1.49603	-1.12243	0.555247	0.196118	0.91608	0.170701	-0.0330735	-0.138528	0.502099	0.168012	0	0	0.212508	-0.121574	-0.246468	0.613956	0.244779	0	0	-0.585044	0.127829	-0.0130232	0.354543	-0.287011	0.430222	0.340503	1.14092	0	0	0.144249	-0.331388	0.459445	0.775565	1.07386	0	0
40.23	2.83833	1.53739	-1.03438	0.550839	0.195577	0.912978	0.212207	-0.0640937	-0.166372	0.509927	0.17718	0	0	0.25412	-0.0893595	-0.219324	0.605982	0.237533	0	0	-0.53068	0.123391	-0.037643	0.340609	-0.291035	0.432452	0.345028	1.14725	0	0	0.135622	-0.325021	0.457505	0.768767	1.07601	0	0
40.24	2.7928	1.54107	-0.990001	0.550723	0.196719	0.914753	0.205004	-0.0631207	-0.168316	0.489453	0.16833	0	0	0.246688	-0.0882434	-0.226332	0.586146	0.229553	0	0	-0.518376	0.120198	-0.0387262	0.331983	-0.291167	0.435997	0.348027	1.1531	0	0	0.132585	-0.325214	0.459117	0.76777	1.07593	0	0
40.25	2.74593	1.54732	-0.945236	0.550801	0.197827	0.91607	0.194885	-0.0619422	-0.148355	0.44718	0.143336	0	0	0.241611	-0.0855282	-0.234569	0.566974	0.22182	0	0	-0.503553	0.114579	-0.0397682	0.322948	-0.290774	0.439119	0.350851	1.15999	0	0	0.129172	-0.326312	0.461039	0.767837	1.07597	0	0
40.26	2.69186	1.5515	-0.892729	0.55062	0.19888	0.91776	0.18807	-0.0620264	-0.149064	0.426836	0.134094	0	0	0.233475	-0.082665	-0.241559	0.545054	0.21249	0	0	-0.491097	0.110728	-0.0407071	0.314586	-0.291639	0.443386	0.354673	1.16786	0	0	0.126963	-0.326113	0.46422	0.764907	1.07944	0	0
40.27	2.54249	1.55327	-0.744112	0.5503	0.199916	0.919684	0.185739	-0.0610846	-0.17092	0.428645	0.140532	0	0	0.224872	-0.0823887	-0.248226	0.524	0.204201	0	0	-0.479977	0.109986	-0.0413434	0.307485	-0.292231	0.445189	0.356532	1.17116	0	0	0.124906	-0.324702	0.465878	0.761817	1.08009	0	0
40.28	2.36547	1.55655	-0.567869	0.550122	0.201022	0.921245	0.178778	-0.0600823	-0.172068	0.407981	0.131045	0	0	0.2172	-0.0803499	-0.25507	0.502588	0.195643	0	0	-0.467126	0.107131	-0.0427452	0.299656	-0.292344	0.447325	0.359048	1.17635	0	0	0.122078	-0.324558	0.467246	0.76075	1.07979	0	0
40.29	2.11013	1.55918	-0.313557	0.549953	0.202192	0.922742	0.171498	-0.0589421	-0.172306	0.387044	0.121633	0	0	0.209129	-0.0781686	-0.262191	0.480894	0.187043	0	0	-0.45426	0.104111	-0.0440302	0.291875	-0.292501	0.44985	0.361672	1.18029	0	0	0.118946	-0.324385	0.468015	0.760223	1.079	0	0
40.3	1.74421	1.56071	0.0511799	0.549773	0.203411	0.924174	0.163683	-0.0575875	-0.172086	0.365079	0.112115	0	0	0.200798	-0.0758242	-0.26951	0.45875	0.178322	0	0	-0.44125	0.101047	-0.0451024	0.283853	-0.292828	0.452457	0.364905	1.18194	0	0	0.115999	-0.323991	0.469707	0.758038	1.08021	0	0
